<svg viewBox="0 0 652 94" xmlns="http://www.w3.org/2000/svg">
<path d="M58.2839 45.7927L106.586 94H147.65C147.65 94 130.085 76.637 123.503 69.9028C123.503 69.9028 145.013 63.262 144.915 37.9615C145.013 -0.131854 109.095 0.00446606 102.186 0H35.7133L1.34713 40.8734C0.476577 41.8695 -0.00186469 43.148 0.000989257 44.4705C8.6843e-05 45.8478 0.532951 47.1719 1.48778 48.165L1.70504 48.3777L47.4131 93.9953L88.4728 93.9996L38.8705 44.4701L50.9572 30.1255H100.068C105.052 30.1255 107.915 33.6414 107.915 37.9611C107.913 40.0395 107.085 42.032 105.614 43.5005C104.142 44.969 102.147 45.7934 100.068 45.7922L58.2839 45.7927Z" fill="#E3000F"/>
<path d="M550.039 83.0402H533.185V45.7949H518.728V88.4458C518.73 89.881 519.302 91.2567 520.317 92.2714C521.333 93.286 522.71 93.8567 524.146 93.8583H564.487V45.7949H550.038L550.039 83.0402Z" fill="#1C1C1C"/>
<path d="M602.843 64.3857H585.98V56.5773L602.842 56.5817L602.843 64.3857ZM611.869 45.7949H571.527V93.8583H617.286V83.0444H585.98V75.2327H617.286V51.1986C617.284 49.7643 616.713 48.3894 615.697 47.3761C614.681 46.3627 613.305 45.794 611.869 45.7949Z" fill="#1C1C1C"/>
<path d="M169.063 45.7974V93.8574H183.5V56.6106H196.731L196.727 45.793L169.063 45.7974Z" fill="#1C1C1C"/>
<path d="M338.822 64.3874H321.966V56.6124H338.822V64.3874ZM347.858 45.7949H307.515V93.8583H353.273V83.0483H321.966V75.2354H353.273V51.1991C353.273 50.4888 353.132 49.7856 352.86 49.1296C352.588 48.4736 352.188 47.8777 351.686 47.3758C351.183 46.874 350.586 46.4761 349.929 46.2048C349.272 45.9336 348.568 45.7943 347.858 45.7949Z" fill="#1C1C1C"/>
<path d="M216.363 83.0402V56.6075H233.225V83.0402H216.363ZM242.256 45.7949H201.915V93.8583H247.673V51.1986C247.671 49.7645 247.099 48.39 246.083 47.3768C245.068 46.3636 243.691 45.7947 242.256 45.7949Z" fill="#1C1C1C"/>
<path d="M295.053 45.7949H254.71V75.2327H286.022V83.0444H254.71V93.8583H300.461V64.3897H269.165V56.6115H300.464C300.464 56.6115 300.469 52.3981 300.469 51.1986C300.467 49.7644 299.896 48.3895 298.88 47.3761C297.865 46.3628 296.488 45.7941 295.053 45.7949Z" fill="#1C1C1C"/>
<path d="M400.658 45.7949H360.316V93.8583H374.769V56.6075H391.627V93.8583H406.075V51.1986C406.074 49.7641 405.502 48.389 404.486 47.3757C403.47 46.3623 402.093 45.7937 400.658 45.7949Z" fill="#1C1C1C"/>
<path d="M444.434 83.1486H427.581V56.6406L444.434 56.6364V83.1486ZM453.39 45.7951L427.582 45.7907V21.6895H413.121V93.9984H458.879V51.2114C458.882 50.4935 458.741 49.7822 458.465 49.1193C458.19 48.4563 457.784 47.855 457.273 47.3506C456.762 46.8462 456.155 46.4488 455.488 46.1817C454.822 45.9146 454.108 45.7832 453.39 45.7951Z" fill="#1C1C1C"/>
<path d="M624.332 45.7974L624.336 93.857H638.762V56.6106L651.991 56.6151L652 45.793L624.332 45.7974Z" fill="#1C1C1C"/>
<path d="M497.19 83.0402H480.435V75.2327H497.19V83.0402ZM506.269 45.7949H465.927L465.931 56.6085H497.191V64.4205H465.931L465.927 93.8589H511.686V51.2029C511.683 49.7684 511.112 48.3934 510.096 47.3796C509.081 46.3657 507.705 45.7958 506.269 45.7949Z" fill="#1C1C1C"/>
</svg>
